<?xml version="1.0" encoding="UTF-8" standalone="no"?>
<!-- Created with Inkscape (http://www.inkscape.org/) -->

<svg
   xmlns:dc="http://purl.org/dc/elements/1.1/"
   xmlns:cc="http://creativecommons.org/ns#"
   xmlns:rdf="http://www.w3.org/1999/02/22-rdf-syntax-ns#"
   xmlns:svg="http://www.w3.org/2000/svg"
   xmlns="http://www.w3.org/2000/svg"
   xmlns:sodipodi="http://sodipodi.sourceforge.net/DTD/sodipodi-0.dtd"
   xmlns:inkscape="http://www.inkscape.org/namespaces/inkscape"
   width="210mm"
   height="297mm"
   viewBox="0 0 744.09448819 1052.3622047"
   id="svg2"
   version="1.1"
   inkscape:version="0.91 r13725"
   sodipodi:docname="LOGO.svg">
  <defs
     id="defs4" />
  <sodipodi:namedview
     id="base"
     pagecolor="#ffffff"
     bordercolor="#666666"
     borderopacity="1.0"
     inkscape:pageopacity="0.0"
     inkscape:pageshadow="2"
     inkscape:zoom="1.4"
     inkscape:cx="327.83215"
     inkscape:cy="787.2337"
     inkscape:document-units="px"
     inkscape:current-layer="layer1"
     showgrid="false"
     inkscape:window-width="1920"
     inkscape:window-height="1018"
     inkscape:window-x="-8"
     inkscape:window-y="-8"
     inkscape:window-maximized="1"
     showguides="false" />
  <metadata
     id="metadata7">
    <rdf:RDF>
      <cc:Work
         rdf:about="">
        <dc:format>image/svg+xml</dc:format>
        <dc:type
           rdf:resource="http://purl.org/dc/dcmitype/StillImage" />
        <dc:title />
      </cc:Work>
    </rdf:RDF>
  </metadata>
  <g
     inkscape:label="Layer 1"
     inkscape:groupmode="layer"
     id="layer1">
    <g
       id="g3391" />
    <g
       style="font-style:normal;font-weight:normal;font-size:40px;line-height:125%;font-family:sans-serif;letter-spacing:0px;word-spacing:0px;fill:#000000;fill-opacity:1;stroke:none;stroke-width:1px;stroke-linecap:butt;stroke-linejoin:miter;stroke-opacity:1"
       id="text3370"
       transform="translate(43.752232,-5.555839)" />
    <path
       style="fill:#000080"
       d="m -165.51436,210.87846 c 3.98103,-0.38975 4.33756,-0.81645 5.94089,-7.1101 0.93813,-3.68252 2.01635,-7.19814 2.39605,-7.8125 0.3797,-0.61437 8.53217,-1.11703 18.11659,-1.11703 l 17.42623,0 0,22.5 0,22.5 -4.92623,0 c -2.70943,0 -5.2447,0.5153 -5.63394,1.14511 -1.31403,2.12613 1.67249,7.60489 4.14549,7.60489 2.36488,0 3.91468,2.26738 3.91468,5.72723 0,0.97502 -0.84375,1.77277 -1.875,1.77277 -2.45218,0 -2.34169,2.43095 0.625,13.75 3.36743,12.84804 3.46772,12.5 -3.60201,12.5 l -6.10201,0 -5.29598,-21.25 -5.29598,-21.25 -5.40324,0 c -6.20853,0 -6.21713,-0.009 -8.48965,-8.92953 -1.60333,-6.29365 -1.95986,-6.72035 -5.94089,-7.1101 -2.32936,-0.22805 -3.27437,-0.30668 -3.56145,-6.30253 -0.28707,-5.99585 1.23209,-6.39016 3.56145,-6.61821 z m 150.079747,48.02287 -2e-5,0 m -9.40645,-30.27756 -5.5435,2.37622 0,22.41068 c 0,18.10192 -0.33791,22.54036 -1.75755,23.08512 -0.96666,0.37094 -2.65416,-0.31628 -3.75,-1.52719 -1.76021,-1.94499 -1.99245,-8.66236 -1.99245,-57.62977 0,-48.96741 0.23224,-55.68477 1.99245,-57.62977 1.09584,-1.2109 2.78334,-1.89813 3.75,-1.5272 1.42141,0.54545 1.75755,5.04629 1.75755,23.53309 l 0,22.85864 5.9375,2.94512 c 3.26562,1.61982 7.30198,4.26208 7.39503,10.04127 0.0826,6.7616 -4.51644,9.66099 -7.78903,11.06379 z m -27.4185,31.0631 c -12.635267,-10.00649 -33.04739,-17.69385 -51.397497,-19.3567 l -9.22749,-0.83617 0,-22.15517 0,-22.15517 9.22749,-0.83617 c 18.298387,-1.65816 38.35895,-9.19884 51.710007,-19.43758 l 6.5625,-5.03269 0,47.4808 c 0,26.11445 -0.14062,47.4353 -0.3125,47.37967 -0.17188,-0.0556 -3.125,-2.32849 -6.56251,-5.05082 z"
       id="path4195"
       inkscape:connector-curvature="0"
       sodipodi:nodetypes="sssscccssssssscccssszsccscsscsscscscssscccsscscs" />
    <g
       id="g4353"
       transform="translate(-21.428571,82.857142)"
       inkscape:export-xdpi="90"
       inkscape:export-ydpi="90">
      <g
         transform="translate(6.5733636,0)"
         id="g4272">
        <text
           xml:space="preserve"
           style="font-style:normal;font-weight:normal;font-size:75.96835327px;line-height:125%;font-family:sans-serif;letter-spacing:0px;word-spacing:0px;fill:#666666;fill-opacity:1;stroke:none;stroke-width:1px;stroke-linecap:butt;stroke-linejoin:miter;stroke-opacity:1"
           x="257.78036"
           y="244.4682"
           id="text4230"
           sodipodi:linespacing="125%"><tspan
             sodipodi:role="line"
             id="tspan4232"
             x="257.78036"
             y="244.4682"
             style="font-style:normal;font-variant:normal;font-weight:normal;font-stretch:condensed;font-family:'Swis721 BlkCn BT';-inkscape-font-specification:'Swis721 BlkCn BT Condensed';letter-spacing:-5.39375257px;fill:#666666;fill-opacity:1">Denuncia</tspan></text>
        <text
           transform="scale(1.1145934,0.89718815)"
           sodipodi:linespacing="125%"
           id="text4268"
           y="219.92084"
           x="432.64923"
           style="font-style:normal;font-weight:normal;font-size:27.46153069px;line-height:125%;font-family:sans-serif;letter-spacing:0px;word-spacing:0px;fill:#ff0000;fill-opacity:1;stroke:none;stroke-width:1px;stroke-linecap:butt;stroke-linejoin:miter;stroke-opacity:1"
           xml:space="preserve"><tspan
             style="font-style:normal;font-variant:normal;font-weight:normal;font-stretch:condensed;font-size:25.79415894px;font-family:'Swis721 BlkCn BT';-inkscape-font-specification:'Swis721 BlkCn BT Condensed';letter-spacing:0px;fill:#ff0000;fill-opacity:1"
             y="219.92084"
             x="432.64923"
             id="tspan4270"
             sodipodi:role="line">SE</tspan></text>
        <rect
           y="186.92551"
           x="467.12503"
           height="10.368726"
           width="11.932426"
           id="rect4278"
           style="opacity:1;fill:#ff0000;fill-opacity:1;stroke:none;stroke-width:0;stroke-linecap:round;stroke-linejoin:bevel;stroke-miterlimit:4;stroke-dasharray:none;stroke-opacity:1" />
      </g>
      <g
         transform="matrix(-0.88055751,0.59489458,0.59489458,0.88055751,384.54604,-187.52706)"
         id="g4226">
        <path
           sodipodi:nodetypes="scsss"
           inkscape:connector-curvature="0"
           id="path4178"
           d="m 357.8684,201.52383 c 0,23.65815 -38.13298,73.03995 -38.13298,73.03995 0,0 -36.01446,-49.3818 -36.01446,-73.03995 0,-23.6582 16.59848,-42.8369 37.07372,-42.8369 20.47524,0 37.07372,19.1787 37.07372,42.8369 z"
           style="fill:#ff0000;fill-rule:evenodd;stroke:none;stroke-width:0.46135369px;stroke-linecap:butt;stroke-linejoin:miter;stroke-opacity:1" />
        <path
           style="opacity:1;fill:#ffffff;fill-opacity:1;stroke:none;stroke-width:0;stroke-linecap:round;stroke-linejoin:bevel;stroke-miterlimit:4;stroke-dasharray:none;stroke-opacity:1"
           d="m 317.4934,167.13902 a 30.839014,30.839014 0 0 1 33.96309,27.36054 30.839014,30.839014 0 0 1 -27.36056,33.96307 30.839014,30.839014 0 0 1 -33.96306,-27.36054 30.839014,30.839014 0 0 1 27.36053,-33.96307 z m -18.13763,12.68835 c -0.0448,0.01 -0.0871,0.0229 -0.12417,0.0427 -0.43983,0.22541 -0.39138,1.68976 0.25106,7.65648 l 0.79437,7.37799 -1.81406,1.15635 c -0.99775,0.63621 -2.2091,1.62992 -2.03828,3.49846 0.20831,2.18521 1.79336,2.9608 2.89838,3.29983 l 1.87229,0.57445 0.77875,7.23301 c 0.62905,5.84249 0.89184,7.26361 1.36896,7.3901 0.32487,0.0861 0.84564,-0.19441 1.15728,-0.62325 0.50054,-0.68891 0.34256,-2.86547 -1.35907,-18.66998 -1.70163,-15.80452 -2.01055,-17.96419 -2.64624,-18.53076 -0.34632,-0.30867 -0.82459,-0.47202 -1.13921,-0.40537 z m 4.55683,3.35717 1.64998,15.32462 c 0.90746,8.42858 1.69378,15.30551 1.74734,15.28157 0.0533,-0.025 0.9277,-0.8601 1.94255,-1.85823 3.7304,-3.6687 10.05104,-6.85937 15.91585,-8.03374 l 2.9495,-0.59049 -0.76992,-7.15106 -0.76987,-7.15042 -3.00761,0.0509 c -5.96355,0.10071 -12.69991,-1.63602 -17.36483,-4.47668 l -2.29299,-1.39645 z m 31.1018,4.80106 -5.62426,0.60554 0.78188,7.262 0.78188,7.26201 1.58981,-0.17117 c 0.87448,-0.0942 1.71035,-0.0155 1.85786,0.17429 0.49796,0.64058 -0.27526,2.51218 -1.07342,2.59812 -0.76329,0.0822 -1.18475,0.86783 -1.06425,1.98492 0.0339,0.31465 0.33385,0.54244 0.66674,0.50656 0.79148,-0.0852 0.84028,0.70325 0.27612,4.45963 -0.64036,4.26379 -0.68503,4.15494 1.59682,3.90926 l 1.96932,-0.21203 0.97115,-7.04261 0.97053,-7.04258 1.74428,-0.1878 c 2.00383,-0.21574 2.00589,-0.21841 2.42932,-3.17708 0.29882,-2.08702 0.39919,-2.23691 1.67055,-2.50103 0.74391,-0.15458 1.04653,-0.21291 0.93081,-2.15805 -0.11567,-1.94517 -0.62001,-2.01929 -1.37978,-2.01194 -1.29844,0.0126 -1.42855,-0.11317 -2.16473,-2.08876 -0.43079,-1.15594 -0.90053,-2.25318 -1.04431,-2.43835 -0.14382,-0.18512 -2.79282,-0.064 -5.88626,0.26901 z"
           id="path4208"
           inkscape:connector-curvature="0" />
      </g>
      <g
         transform="matrix(0.20286869,-0.08140099,0.08140099,0.20286869,180.77844,105.16772)"
         style="fill:#ff0000"
         id="g4348">
        <path
           style="fill:#ff0000;fill-rule:evenodd;stroke:none;stroke-width:1px;stroke-linecap:butt;stroke-linejoin:miter;stroke-opacity:1"
           d="m 249.28571,190.21935 c 99.47792,94.27179 84.26016,190.93307 56.42857,287.85714 0,0 54.52058,-65.19713 41.00272,-165.8876 C 333.19915,211.49843 249.28571,190.21935 249.28571,190.21935 Z"
           id="path4342"
           inkscape:connector-curvature="0"
           sodipodi:nodetypes="cczc" />
        <path
           style="fill:#ff0000;fill-rule:evenodd;stroke:none;stroke-width:1px;stroke-linecap:butt;stroke-linejoin:miter;stroke-opacity:1"
           d="m 218.21428,227.00507 c 0,0 71.56416,23.01638 82.5,100.35714 10.93584,77.34075 -36.78571,132.5 -36.78571,132.5 40.61913,-113.84178 14.32987,-183.5073 -45.71429,-232.85714 z"
           id="path4344"
           inkscape:connector-curvature="0"
           sodipodi:nodetypes="czcc" />
        <path
           style="fill:#ff0000;fill-rule:evenodd;stroke:none;stroke-width:1px;stroke-linecap:butt;stroke-linejoin:miter;stroke-opacity:1"
           d="m 193.21428,259.86221 c 0,0 49.65437,14.349 62.5,69.64286 12.84563,55.29386 -26.07142,115.71428 -26.07142,115.71428 16.03374,-65.3897 27.86876,-130.24235 -36.42858,-185.35714 z"
           id="path4346"
           inkscape:connector-curvature="0"
           sodipodi:nodetypes="czcc" />
      </g>
    </g>
  </g>
</svg>
