<?xml version="1.0" encoding="UTF-8" standalone="no"?>
<!-- Created with Inkscape (http://www.inkscape.org/) -->

<svg
   xmlns:dc="http://purl.org/dc/elements/1.1/"
   xmlns:cc="http://creativecommons.org/ns#"
   xmlns:rdf="http://www.w3.org/1999/02/22-rdf-syntax-ns#"
   xmlns:svg="http://www.w3.org/2000/svg"
   xmlns="http://www.w3.org/2000/svg"
   xmlns:sodipodi="http://sodipodi.sourceforge.net/DTD/sodipodi-0.dtd"
   xmlns:inkscape="http://www.inkscape.org/namespaces/inkscape"
   width="210mm"
   height="297mm"
   viewBox="0 0 744.09448819 1052.3622047"
   id="svg2"
   version="1.1"
   inkscape:version="0.91pre3 r13670"
   inkscape:export-filename="H:\denunciase\css\logo_teste.png"
   inkscape:export-xdpi="100.48373"
   inkscape:export-ydpi="100.48373"
   sodipodi:docname="logo final 001.svg">
  <defs
     id="defs4" />
  <sodipodi:namedview
     id="base"
     pagecolor="#ffffff"
     bordercolor="#666666"
     borderopacity="1.0"
     inkscape:pageopacity="0.0"
     inkscape:pageshadow="2"
     inkscape:zoom="1.4"
     inkscape:cx="1002.3268"
     inkscape:cy="487.66695"
     inkscape:document-units="px"
     inkscape:current-layer="layer1"
     showgrid="false"
     showguides="true"
     inkscape:guide-bbox="true"
     inkscape:window-width="1360"
     inkscape:window-height="715"
     inkscape:window-x="-8"
     inkscape:window-y="-8"
     inkscape:window-maximized="1" />
  <metadata
     id="metadata7">
    <rdf:RDF>
      <cc:Work
         rdf:about="">
        <dc:format>image/svg+xml</dc:format>
        <dc:type
           rdf:resource="http://purl.org/dc/dcmitype/StillImage" />
        <dc:title />
      </cc:Work>
    </rdf:RDF>
  </metadata>
  <g
     inkscape:label="Camada 1"
     inkscape:groupmode="layer"
     id="layer1">
    <g
       id="g3391"
       transform="translate(945.87687,183.36967)" />
    <g
       style="font-style:normal;font-weight:normal;font-size:40px;line-height:125%;font-family:sans-serif;letter-spacing:0px;word-spacing:0px;fill:#000000;fill-opacity:1;stroke:none;stroke-width:1px;stroke-linecap:butt;stroke-linejoin:miter;stroke-opacity:1"
       id="text3370"
       transform="translate(989.6291,177.81383)" />
    <path
       style="fill:#000080"
       d="m 221.54659,-82.200848 c 3.98103,-0.38975 4.33756,-0.81645 5.94089,-7.1101 0.93813,-3.68252 2.01635,-7.19814 2.39605,-7.8125 0.3797,-0.61437 8.53217,-1.11703 18.11659,-1.11703 l 17.42623,0 0,22.5 0,22.5 -4.92623,0 c -2.70943,0 -5.2447,0.5153 -5.63394,1.14511 -1.31403,2.12613 1.67249,7.60489 4.14549,7.60489 2.36488,0 3.91468,2.26738 3.91468,5.72723 0,0.97502 -0.84375,1.77277 -1.875,1.77277 -2.45218,0 -2.34169,2.43095 0.625,13.75 3.36743,12.84804 3.46772,12.5 -3.60201,12.5 l -6.10201,0 -5.29598,-21.25 -5.29598,-21.25 -5.40324,0 c -6.20853,0 -6.21713,-0.009 -8.48965,-8.92953 -1.60333,-6.29365 -1.95986,-6.72035 -5.94089,-7.1101 -2.32936,-0.22805 -3.27437,-0.30668 -3.56145,-6.30253 -0.28707,-5.99585 1.23209,-6.39016 3.56145,-6.61821 z m 150.07975,48.02287 -2e-5,0 m -9.40645,-30.27756 -5.5435,2.37622 0,22.41068 c 0,18.10192 -0.33791,22.54036 -1.75755,23.08512 -0.96666,0.37094 -2.65416,-0.31628 -3.75,-1.52719 -1.76021,-1.94499 -1.99245,-8.66236 -1.99245,-57.62977 0,-48.967412 0.23224,-55.684772 1.99245,-57.629772 1.09584,-1.2109 2.78334,-1.89813 3.75,-1.5272 1.42141,0.54545 1.75755,5.04629 1.75755,23.53309 l 0,22.858642 5.9375,2.94512 c 3.26562,1.61982 7.30198,4.26208 7.39503,10.04127 0.0826,6.7616 -4.51644,9.66099 -7.78903,11.06379 z m -27.4185,31.0631 c -12.63527,-10.00649 -33.04739,-17.69385 -51.3975,-19.3567 l -9.22749,-0.83617 0,-22.15517 0,-22.15517 9.22749,-0.83617 c 18.29839,-1.658162 38.35895,-9.198842 51.71001,-19.437582 l 6.5625,-5.03269 0,47.480802 c 0,26.11445 -0.14062,47.4353 -0.3125,47.37967 -0.17188,-0.0556 -3.125,-2.32849 -6.56251,-5.05082 z"
       id="path4195"
       inkscape:connector-curvature="0"
       sodipodi:nodetypes="sssscccssssssscccssszsccscsscsscscscssscccsscscs" />
    <g
       inkscape:export-ydpi="45.075108"
       inkscape:export-xdpi="45.075108"
       id="g4226"
       transform="matrix(-0.57302959,0.38713224,0.38713224,0.57302959,944.61612,330.85826)">
      <path
         style="fill:#ff0000;fill-rule:evenodd;stroke:none;stroke-width:0.46135369px;stroke-linecap:butt;stroke-linejoin:miter;stroke-opacity:1"
         d="m 357.8684,201.52383 c 0,23.65815 -38.13298,73.03995 -38.13298,73.03995 0,0 -36.01446,-49.3818 -36.01446,-73.03995 0,-23.6582 16.59848,-42.8369 37.07372,-42.8369 20.47524,0 37.07372,19.1787 37.07372,42.8369 z"
         id="path4178"
         inkscape:connector-curvature="0"
         sodipodi:nodetypes="scsss" />
      <path
         inkscape:connector-curvature="0"
         id="path4208"
         d="m 317.4934,167.13902 a 30.839014,30.839014 0 0 1 33.96309,27.36054 30.839014,30.839014 0 0 1 -27.36056,33.96307 30.839014,30.839014 0 0 1 -33.96306,-27.36054 30.839014,30.839014 0 0 1 27.36053,-33.96307 z m -18.13763,12.68835 c -0.0448,0.01 -0.0871,0.0229 -0.12417,0.0427 -0.43983,0.22541 -0.39138,1.68976 0.25106,7.65648 l 0.79437,7.37799 -1.81406,1.15635 c -0.99775,0.63621 -2.2091,1.62992 -2.03828,3.49846 0.20831,2.18521 1.79336,2.9608 2.89838,3.29983 l 1.87229,0.57445 0.77875,7.23301 c 0.62905,5.84249 0.89184,7.26361 1.36896,7.3901 0.32487,0.0861 0.84564,-0.19441 1.15728,-0.62325 0.50054,-0.68891 0.34256,-2.86547 -1.35907,-18.66998 -1.70163,-15.80452 -2.01055,-17.96419 -2.64624,-18.53076 -0.34632,-0.30867 -0.82459,-0.47202 -1.13921,-0.40537 z m 4.55683,3.35717 1.64998,15.32462 c 0.90746,8.42858 1.69378,15.30551 1.74734,15.28157 0.0533,-0.025 0.9277,-0.8601 1.94255,-1.85823 3.7304,-3.6687 10.05104,-6.85937 15.91585,-8.03374 l 2.9495,-0.59049 -0.76992,-7.15106 -0.76987,-7.15042 -3.00761,0.0509 c -5.96355,0.10071 -12.69991,-1.63602 -17.36483,-4.47668 l -2.29299,-1.39645 z m 31.1018,4.80106 -5.62426,0.60554 0.78188,7.262 0.78188,7.26201 1.58981,-0.17117 c 0.87448,-0.0942 1.71035,-0.0155 1.85786,0.17429 0.49796,0.64058 -0.27526,2.51218 -1.07342,2.59812 -0.76329,0.0822 -1.18475,0.86783 -1.06425,1.98492 0.0339,0.31465 0.33385,0.54244 0.66674,0.50656 0.79148,-0.0852 0.84028,0.70325 0.27612,4.45963 -0.64036,4.26379 -0.68503,4.15494 1.59682,3.90926 l 1.96932,-0.21203 0.97115,-7.04261 0.97053,-7.04258 1.74428,-0.1878 c 2.00383,-0.21574 2.00589,-0.21841 2.42932,-3.17708 0.29882,-2.08702 0.39919,-2.23691 1.67055,-2.50103 0.74391,-0.15458 1.04653,-0.21291 0.93081,-2.15805 -0.11567,-1.94517 -0.62001,-2.01929 -1.37978,-2.01194 -1.29844,0.0126 -1.42855,-0.11317 -2.16473,-2.08876 -0.43079,-1.15594 -0.90053,-2.25318 -1.04431,-2.43835 -0.14382,-0.18512 -2.79282,-0.064 -5.88626,0.26901 z"
         style="opacity:1;fill:#ffffff;fill-opacity:1;stroke:none;stroke-width:0;stroke-linecap:round;stroke-linejoin:bevel;stroke-miterlimit:4;stroke-dasharray:none;stroke-opacity:1" />
    </g>
    <g
       id="text3429"
       style="font-style:normal;font-weight:normal;font-size:69.49962616px;line-height:125%;font-family:sans-serif;letter-spacing:0px;word-spacing:0px;fill:#666666;fill-opacity:1;stroke:none;stroke-width:1px;stroke-linecap:butt;stroke-linejoin:miter;stroke-opacity:1"
       transform="matrix(1,0,0,-1.0287696,697.48402,373.20256)" />
    <g
       id="g3542"
       transform="translate(0,8.5104426)"
       inkscape:export-xdpi="45.075108"
       inkscape:export-ydpi="45.075108">
      <text
         sodipodi:linespacing="125%"
         id="text4230"
         y="594.32703"
         x="873.23547"
         style="font-style:normal;font-weight:normal;font-size:69.49962616px;line-height:125%;font-family:sans-serif;letter-spacing:0px;word-spacing:0px;fill:#666666;fill-opacity:1;stroke:none;stroke-width:1px;stroke-linecap:butt;stroke-linejoin:miter;stroke-opacity:1"
         xml:space="preserve"
         inkscape:export-xdpi="100.48373"
         inkscape:export-ydpi="100.48373"><tspan
           style="font-style:normal;font-variant:normal;font-weight:normal;font-stretch:condensed;font-family:'Swis721 BlkCn BT';-inkscape-font-specification:'Swis721 BlkCn BT Condensed';letter-spacing:-2.14074826px;fill:#666666;fill-opacity:1"
           y="594.32703"
           x="873.23547"
           id="tspan4232"
           sodipodi:role="line">Denuncia</tspan></text>
    </g>
    <g
       id="g3385"
       transform="translate(42,0)"
       inkscape:export-xdpi="45.075108"
       inkscape:export-ydpi="45.075108">
      <g
         inkscape:export-ydpi="100"
         inkscape:export-xdpi="100"
         style="fill:#ff0000"
         id="g3552"
         transform="matrix(0.63066019,0,0,0.63066019,597.5605,228.40762)">
        <text
           sodipodi:linespacing="125%"
           id="text3554"
           y="594.32703"
           x="873.23547"
           style="font-style:normal;font-weight:normal;font-size:69.49962616px;line-height:125%;font-family:sans-serif;letter-spacing:0px;word-spacing:0px;fill:#ff0000;fill-opacity:1;stroke:none;stroke-width:1px;stroke-linecap:butt;stroke-linejoin:miter;stroke-opacity:1"
           xml:space="preserve"
           inkscape:export-xdpi="100.48373"
           inkscape:export-ydpi="100.48373"><tspan
             style="font-style:normal;font-variant:normal;font-weight:normal;font-stretch:condensed;font-family:'Swis721 BlkCn BT';-inkscape-font-specification:'Swis721 BlkCn BT Condensed';letter-spacing:-2.14074826px;fill:#ff0000;fill-opacity:1"
             y="594.32703"
             x="873.23547"
             id="tspan3556"
             sodipodi:role="line">se</tspan></text>
        <g
           style="fill:#ff0000"
           transform="translate(55.285714,-20.364237)"
           id="g3558" />
      </g>
      <g
         id="g3497"
         transform="translate(58.501785,-13.562678)">
        <path
           sodipodi:nodetypes="ccccc"
           inkscape:connector-curvature="0"
           id="path3434-4"
           style="font-style:normal;font-variant:normal;font-weight:normal;font-stretch:condensed;font-size:69.49962616px;line-height:125%;font-family:'Swis721 BlkCn BT';-inkscape-font-specification:'Swis721 BlkCn BT Condensed';letter-spacing:-2.14074826px;word-spacing:0px;fill:#ff0000;fill-opacity:1;stroke:none;stroke-width:1px;stroke-linecap:butt;stroke-linejoin:miter;stroke-opacity:1"
           d="m 1078.8864,604.67794 0,11.06532 10.9379,0 0,-11.06532 z" />
      </g>
    </g>
  </g>
</svg>
